<?xml version="1.0" encoding="UTF-8"?>
<svg version="1.1" xmlns="http://www.w3.org/2000/svg" width="1000" height="1000">
<path d="M0 0 C12.47141053 9.96222236 19.48256764 25.75834646 21.25585938 41.28955078 C22.65962168 57.75221261 17.6710402 72.4963042 7.5859375 85.37890625 C6.8228125 86.43078125 6.0596875 87.48265625 5.2734375 88.56640625 C-3.0782173 97.30651011 -14.54173664 103.40018527 -26.4140625 105.37890625 C-26.4140625 208.33890625 -26.4140625 311.29890625 -26.4140625 417.37890625 C-23.4440625 418.03890625 -20.4740625 418.69890625 -17.4140625 419.37890625 C-1.99270226 425.37928681 9.43138311 436.17752843 16.5234375 451.12890625 C24.08941569 469.35485371 21.83107026 487.43199341 14.5859375 505.37890625 C15.45734375 506.11753906 16.32875 506.85617187 17.2265625 507.6171875 C23.16766566 512.67153378 29.06031845 517.75465729 34.7734375 523.06640625 C38.41994132 526.45428853 42.14212076 529.69789164 46.0234375 532.81640625 C51.44006198 537.17631931 56.50532046 541.85366504 61.5859375 546.59375 C64.5481299 549.35556966 67.5761509 552.03193059 70.640625 554.6796875 C72.9225904 556.67297053 75.15822324 558.71383652 77.3984375 560.75390625 C80.79677302 563.82637398 84.26184273 566.76333247 87.8359375 569.62890625 C92.91016756 573.72842545 97.6482408 578.11261487 102.39355469 582.58105469 C105.85620497 585.82409456 109.37862343 588.913055 113.0859375 591.87890625 C118.0902807 595.88238081 122.73293052 600.19227333 127.39453125 604.58203125 C130.85689961 607.82468696 134.37898853 610.91334708 138.0859375 613.87890625 C142.4429717 617.36453361 146.52715283 621.05684292 150.5859375 624.87890625 C155.49554048 629.50185583 160.53072293 633.84491804 165.796875 638.0625 C170.21837734 641.73470012 174.38459253 645.67408754 178.5859375 649.59375 C181.5481299 652.35556966 184.5761509 655.03193059 187.640625 657.6796875 C189.9225904 659.67297053 192.15822324 661.71383652 194.3984375 663.75390625 C198.82670436 667.75297186 203.38862775 671.55163683 208.0390625 675.2890625 C210.27828993 677.12646538 212.39844908 679.0378379 214.5234375 681.00390625 C217.1943724 683.63346531 217.1943724 683.63346531 219.48828125 683.203125 C221.94308607 682.23857413 223.99239008 680.99364767 226.2109375 679.56640625 C241.05396727 670.50411721 256.9098978 668.25095685 273.828125 672.2109375 C290.81393165 677.49030984 302.47602182 687.19571346 311.5859375 702.37890625 C313.23424067 705.64757525 314.50982314 708.88302092 315.5859375 712.37890625 C315.80894531 713.03375 316.03195312 713.68859375 316.26171875 714.36328125 C320.58197739 729.52827076 317.82810332 747.17542724 310.3359375 760.75390625 C301.06110959 775.4242816 287.68376055 785.50770103 270.5859375 789.37890625 C253.44442206 792.1436668 236.96511757 789.18630493 222.6640625 778.94921875 C221.63539063 778.17191406 221.63539063 778.17191406 220.5859375 777.37890625 C219.58820313 776.66347656 219.58820313 776.66347656 218.5703125 775.93359375 C208.69959778 768.20023852 202.58404659 756.35349673 199.5859375 744.37890625 C199.39515625 743.61835937 199.204375 742.8578125 199.0078125 742.07421875 C197.29667974 731.14198166 198.1432919 719.85798359 201.5859375 709.37890625 C201.9778125 708.14140625 202.3696875 706.90390625 202.7734375 705.62890625 C203.0415625 704.88640625 203.3096875 704.14390625 203.5859375 703.37890625 C203.05484375 703.16621094 202.52375 702.95351563 201.9765625 702.734375 C198.66440016 700.8564006 196.07679468 698.29834015 193.3359375 695.69140625 C192.16341598 694.59304976 190.99024231 693.49538901 189.81640625 692.3984375 C189.2548584 691.8720166 188.69331055 691.3455957 188.11474609 690.80322266 C183.99386374 686.96399754 179.69874341 683.32489714 175.41015625 679.67578125 C174.21848064 678.66047231 173.0270834 677.64483658 171.8359375 676.62890625 C170.93053223 675.8567981 170.93053223 675.8567981 170.00683594 675.0690918 C165.5465269 671.24690431 161.21335097 667.30677219 156.91064453 663.30908203 C153.77090633 660.41142401 150.54427261 657.67544052 147.2109375 655.00390625 C142.17177344 650.95224408 137.48127979 646.60536009 132.77783203 642.17626953 C129.31532272 638.93342173 125.79306902 635.84461146 122.0859375 632.87890625 C117.0815943 628.87543169 112.43894448 624.56553917 107.77734375 620.17578125 C104.31497539 616.93312554 100.79288647 613.84446542 97.0859375 610.87890625 C92.7289033 607.39327889 88.64472217 603.70096958 84.5859375 599.87890625 C79.67633452 595.25595667 74.64115207 590.91289446 69.375 586.6953125 C64.95349766 583.02311238 60.78728247 579.08372496 56.5859375 575.1640625 C53.6237451 572.40224284 50.5957241 569.72588191 47.53125 567.078125 C45.2492846 565.08484197 43.01365176 563.04397598 40.7734375 561.00390625 C37.37510198 557.93143852 33.91003227 554.99448003 30.3359375 552.12890625 C25.90659756 548.55039997 21.72903105 544.77881823 17.5859375 540.87890625 C8.29373017 531.64372481 8.29373017 531.64372481 -2.4140625 524.37890625 C-4.7623074 525.56804305 -7.01422827 526.81214827 -9.2890625 528.12890625 C-23.15934404 535.75418052 -38.25205422 537.67938839 -53.7890625 534.25390625 C-69.56125341 529.57017552 -82.44916268 520.02334814 -90.9140625 505.87109375 C-99.02772344 490.46479708 -100.54677269 474.01517836 -95.734375 457.30859375 C-90.71665587 441.54632706 -80.41537951 430.23101606 -66.20263672 422.29052734 C-61.47816667 419.88250507 -55.79805448 417.37890625 -50.4140625 417.37890625 C-50.4140625 314.41890625 -50.4140625 211.45890625 -50.4140625 105.37890625 C-53.3840625 104.71890625 -56.3540625 104.05890625 -59.4140625 103.37890625 C-74.6039762 97.46858047 -86.48212445 86.68012712 -93.38671875 71.89453125 C-99.79612624 56.20001253 -100.06937766 40.34448215 -94.4140625 24.37890625 C-88.28633899 9.93271869 -78.40289442 -0.65853021 -64.4140625 -7.62109375 C-60.14120191 -9.29328352 -55.88230102 -10.58854345 -51.4140625 -11.62109375 C-50.63289063 -11.811875 -49.85171875 -12.00265625 -49.046875 -12.19921875 C-30.83028536 -15.1181975 -15.03455197 -10.09601791 0 0 Z " fill="#FFFFFF" transform="translate(557.4140625,38.62109375)"/>
<path d="M0 0 C1.32451172 0.5259375 1.32451172 0.5259375 2.67578125 1.0625 C19.5551116 8.62275994 31.19566939 23.63047443 38.390625 40.203125 C43.83864506 56.08678911 43.08840286 76.35783864 35.7734375 91.546875 C35.39445313 92.25328125 35.01546875 92.9596875 34.625 93.6875 C32.68093512 96.70432743 32.68093512 96.70432743 33.55859375 98.8828125 C35.49368398 101.72514016 37.88505099 103.91718697 40.4375 106.1875 C40.97318604 106.67162354 41.50887207 107.15574707 42.06079102 107.65454102 C46.30628944 111.45992298 50.71008778 115.04811377 55.15234375 118.62109375 C58.95438633 121.7972857 62.54903752 125.17270822 66.16381836 128.55834961 C69.51099327 131.67553945 72.93005023 134.63573798 76.5 137.5 C81.26108478 141.31994011 85.71273025 145.38938819 90.1640625 149.55859375 C93.51116869 152.67568554 96.93014141 155.63581113 100.5 158.5 C104.66666705 161.84302356 108.60415903 165.35118726 112.5 169 C117.29183165 173.48691616 122.22252143 177.70826721 127.34375 181.8203125 C131.6989997 185.39417917 135.84970857 189.19181502 140 193 C137.54460588 197.57478694 134.35144038 201.07347818 130.8125 204.8125 C130.25369141 205.40998047 129.69488281 206.00746094 129.11914062 206.62304688 C127.75005307 208.08574725 126.37556721 209.54339162 125 211 C119.97711876 209.504423 117.03152151 206.5010805 113.375 202.9375 C109.17771199 198.93780892 104.97163686 195.05948304 100.4375 191.4375 C96.28899495 188.1174776 92.37474704 184.62948833 88.5 181 C84.60423719 177.35111551 80.66665716 173.84301562 76.5 170.5 C72.3333379 167.15698041 68.39580188 163.64884863 64.5 160 C59.73911006 155.54125556 54.8353218 151.3620217 49.74609375 147.27734375 C46.73680569 144.78173217 43.86067879 142.16228206 41 139.5 C36.33622268 135.16176022 31.52102724 131.07934705 26.55859375 127.08203125 C22.95473237 124.14942344 19.46840205 121.09075369 16 118 C12.3711155 119.341714 9.03475341 121.03181801 5.63378906 122.86914062 C-11.39618094 131.92640226 -28.39613496 132.92280807 -47 128 C-55.28918654 125.29635851 -62.13471759 121.32899543 -69 116 C-69.92039063 115.32710937 -69.92039063 115.32710937 -70.859375 114.640625 C-84.70917181 103.84032474 -91.87707644 87.00107951 -94 70 C-95.52106044 50.88111536 -90.1748155 32.60783281 -77.765625 17.87890625 C-58.24299618 -2.89628061 -26.79433067 -10.99254592 0 0 Z " fill="#FFFFFF" transform="translate(256,190)"/>
<path d="M0 0 C3.6249934 -0.02774746 7.24993353 -0.0467779 10.875 -0.0625 C12.42380859 -0.07506836 12.42380859 -0.07506836 14.00390625 -0.08789062 C14.99003906 -0.09111328 15.97617187 -0.09433594 16.9921875 -0.09765625 C18.35899658 -0.10551147 18.35899658 -0.10551147 19.75341797 -0.11352539 C22 0 22 0 24 1 C23.88114943 10.6459153 23.75518761 20.29173187 23.625 29.9375 C23.61483479 30.6909029 23.60466957 31.4443058 23.59419632 32.22053909 C23.15682842 64.46166515 22.55975464 96.69947548 21.9375 128.9375 C21.91444038 130.13229351 21.89138077 131.32708702 21.86762238 132.5580864 C21.58143279 147.37211694 21.29218193 162.18608647 21 177 C21.82881683 177.20160736 22.65763367 177.40321472 23.51156616 177.6109314 C24.59620148 177.87773712 25.68083679 178.14454285 26.79833984 178.41943359 C28.41281509 178.81465714 28.41281509 178.81465714 30.05990601 179.21786499 C39.73804763 181.79248111 47.04316386 188.05543342 54 195 C54.57621094 195.56460938 55.15242187 196.12921875 55.74609375 196.7109375 C65.71170745 207.32366898 69.57953526 221.69514607 69.4375 235.875 C69.42992676 236.93420654 69.42235352 237.99341309 69.41455078 239.0847168 C69.2542624 246.67852509 68.41427576 253.12877002 65 260 C64.5875 260.91265625 64.175 261.8253125 63.75 262.765625 C56.12518526 278.27519135 43.80073327 287.17220953 27.9453125 293.0546875 C12.94625251 297.86870941 -4.56503461 295.86054376 -18.5 289 C-33.33669604 280.50665784 -43.41849916 268.18691473 -48.32421875 251.6328125 C-52.43881707 235.6025277 -49.69032552 219.70969551 -41.9375 205.25390625 C-33.83886741 191.6527753 -22.40698066 182.25831827 -7 178 C-5.68 178 -4.36 178 -3 178 C-3.00490952 176.98524597 -3.00981903 175.97049194 -3.01487732 174.92498779 C-3.15056833 143.65735914 -2.75126819 112.40689597 -2.20043945 81.14453125 C-2.09506716 75.16142745 -1.99469564 69.17826257 -1.89716727 63.19502759 C-1.8012004 57.31736556 -1.70107702 51.43978075 -1.59924126 45.56221771 C-1.55712403 43.10813949 -1.51605278 40.65404305 -1.4761219 38.19992828 C-1.2665533 25.44049836 -0.98168083 12.72656329 0 0 Z " fill="#FFFFFF" transform="translate(509,692)"/>
<path d="M0 0 C2.29068448 1.02226572 3.66530336 2.17545302 5.44335938 3.94287109 C6.37148438 4.86519531 6.37148438 4.86519531 7.31835938 5.80615234 C7.95257813 6.45197266 8.58679688 7.09779297 9.24023438 7.76318359 C10.21476562 8.7203125 10.21476562 8.7203125 11.20898438 9.69677734 C12.129375 10.62296875 12.129375 10.62296875 13.06835938 11.56787109 C13.62942383 12.13231934 14.19048828 12.69676758 14.76855469 13.27832031 C15.99023438 14.88818359 15.99023438 14.88818359 15.99023438 17.88818359 C14.57421875 19.37841797 14.57421875 19.37841797 12.58398438 20.98193359 C7.58724403 25.16934276 3.06043068 29.7446294 -1.50976562 34.38818359 C-6.51897032 39.47779286 -11.54999343 44.4182296 -16.96875 49.06982422 C-20.99473457 52.65661047 -24.72898061 56.54671182 -28.50976562 60.38818359 C-33.52904072 65.4880249 -38.57022187 70.44001842 -44 75.10107422 C-47.84285753 78.51819243 -51.4058525 82.22277024 -55.00976562 85.88818359 C-63.4316852 94.45382193 -63.4316852 94.45382193 -67.97851562 98.35693359 C-72.74143077 102.45021116 -77.10690689 106.91465297 -81.50976562 111.38818359 C-86.64049002 116.60126311 -91.78308836 121.70290676 -97.34960938 126.45288086 C-99.33627203 128.17046758 -101.19143468 129.99408885 -103.00976562 131.88818359 C-102.80480469 132.55205078 -102.59984375 133.21591797 -102.38867188 133.89990234 C-102.11925781 134.78291016 -101.84984375 135.66591797 -101.57226562 136.57568359 C-101.30542969 137.44580078 -101.03859375 138.31591797 -100.76367188 139.21240234 C-96.16797999 155.52353674 -98.22442849 172.58837793 -105.69726562 187.57568359 C-114.3908139 202.54427423 -127.40503266 211.12656171 -143.74023438 216.00146484 C-159.68834177 219.808981 -176.3717119 216.78530785 -190.38476562 208.63818359 C-204.16864668 199.44892956 -213.4971024 186.13163 -217.32226562 170.01318359 C-220.41958141 151.6357766 -216.12187473 136.1280653 -206.02148438 120.88818359 C-196.18342229 107.95477933 -182.06838068 100.11650059 -166.00976562 97.88818359 C-147.55028398 96.26294662 -133.1512437 101.7060882 -118.00976562 111.88818359 C-117.23632812 111.10314453 -116.46289062 110.31810547 -115.66601562 109.50927734 C-114.61407179 108.44794115 -113.56198042 107.38675116 -112.50976562 106.32568359 C-112.00445312 105.81199219 -111.49914062 105.29830078 -110.97851562 104.76904297 C-108.14406274 101.91687476 -105.24882292 99.19902102 -102.19726562 96.57958984 C-97.39116139 92.42253963 -92.96493991 87.91486951 -88.50976562 83.38818359 C-83.49049053 78.28834229 -78.44930938 73.33634877 -73.01953125 68.67529297 C-69.17667372 65.25817476 -65.61367875 61.55359695 -62.00976562 57.88818359 C-53.58784605 49.32254525 -53.58784605 49.32254525 -49.04101562 45.41943359 C-44.27810048 41.32615602 -39.91262436 36.86171422 -35.50976562 32.38818359 C-30.47735311 27.27499399 -25.42158926 22.31756571 -19.97460938 17.64794922 C-17.84156149 15.73753556 -15.8552473 13.73192899 -13.86914062 11.66943359 C-13.19109375 10.96560547 -12.51304687 10.26177734 -11.81445312 9.53662109 C-10.42156962 8.08018397 -9.03636219 6.61637398 -7.65820312 5.14599609 C-6.9853125 4.45248047 -6.31242188 3.75896484 -5.61914062 3.04443359 C-5.02069336 2.4134375 -4.42224609 1.78244141 -3.80566406 1.13232422 C-2.00976562 -0.11181641 -2.00976562 -0.11181641 0 0 Z " fill="#FFFFFF" transform="translate(380.009765625,625.11181640625)"/>
<path d="M0 0 C12.38624996 10.02925482 19.34336763 24.87411867 21.69921875 40.37890625 C23.11443831 56.3728259 19.10415763 72.35791127 8.92578125 84.9375 C-0.6883508 96.13150002 -13.40505616 104.26939605 -28.30078125 106.37890625 C-47.56768438 107.68767995 -64.00606285 104.60734817 -79.05078125 91.69140625 C-87.30671796 83.82356913 -92.80366215 74.22481017 -96.30078125 63.37890625 C-96.30078125 62.05890625 -96.30078125 60.73890625 -96.30078125 59.37890625 C-151.08078125 59.37890625 -205.86078125 59.37890625 -262.30078125 59.37890625 C-262.30078125 51.45890625 -262.30078125 43.53890625 -262.30078125 35.37890625 C-207.52078125 35.37890625 -152.74078125 35.37890625 -96.30078125 35.37890625 C-95.97078125 32.73890625 -95.64078125 30.09890625 -95.30078125 27.37890625 C-89.80841764 12.24899894 -78.78005113 0.0804294 -64.359375 -7.08203125 C-42.44147158 -16.76733723 -19.43478023 -13.69343599 0 0 Z " fill="#FFFFFF" transform="translate(956.30078125,470.62109375)"/>
<path d="M0 0 C12.59516282 10.680417 19.94878788 24.49655307 21.98828125 40.8125 C76.10828125 40.8125 130.22828125 40.8125 185.98828125 40.8125 C185.98828125 48.7325 185.98828125 56.6525 185.98828125 64.8125 C130.87828125 64.8125 75.76828125 64.8125 18.98828125 64.8125 C18.65828125 66.7925 18.32828125 68.7725 17.98828125 70.8125 C14.56665473 79.07328403 9.25225768 85.53745647 2.98828125 91.8125 C2.42367187 92.38871094 1.8590625 92.96492187 1.27734375 93.55859375 C-10.84577306 104.94249612 -26.73189454 107.68684542 -42.703125 107.22265625 C-57.59543171 106.36837719 -71.79512811 99.55153282 -82.0390625 88.65625 C-94.571623 73.27887515 -98.47128947 57.29129695 -97.01171875 37.8125 C-94.86492511 22.10802761 -85.5179278 8.40629989 -73.3515625 -1.3125 C-50.87956625 -16.6689157 -21.89349994 -15.9018936 0 0 Z " fill="#FFFFFF" transform="translate(157.01171875,470.1875)"/>
<path d="M0 0 C0.77730469 0.50144531 1.55460938 1.00289062 2.35546875 1.51953125 C13.44614017 9.36508367 21.82316883 22.3392265 24.65625 35.66015625 C27.24467636 53.27910388 25.60853664 70.00300616 15.125 84.875 C4.39458109 98.69417501 -8.8382833 107.08725715 -26.3984375 109.71875 C-35.73368803 110.72796627 -43.88990338 109.20532598 -53 107 C-60.55240568 119.40313778 -67.78990094 131.98458472 -75.02832031 144.57275391 C-78.18025232 150.05155797 -81.34040797 155.52561113 -84.5 161 C-85.7500423 163.16664226 -87.00004224 165.33330897 -88.25 167.5 C-95.75 180.5 -95.75 180.5 -97.62768555 183.75463867 C-98.86875254 185.90583224 -100.10980093 188.05703655 -101.35083008 190.20825195 C-104.26498344 195.25962999 -107.17931818 200.3109031 -110.09432983 205.36178589 C-111.12673478 207.15066918 -112.15907956 208.93958717 -113.19140625 210.72851562 C-114.48685948 212.97337636 -115.7824257 215.2181719 -117.078125 217.46289062 C-120.06307914 222.63571774 -123.04245317 227.81145009 -126 233 C-131.24881176 232.51342376 -135.0073114 229.73452602 -139.3125 226.9375 C-140.05306641 226.46505859 -140.79363281 225.99261719 -141.55664062 225.50585938 C-143.37551219 224.34412851 -145.1883659 223.17298518 -147 222 C-146.41933397 218.19439766 -145.33578266 215.473423 -143.3671875 212.17578125 C-142.81619385 211.24330566 -142.2652002 210.31083008 -141.69750977 209.35009766 C-140.79536743 207.84648682 -140.79536743 207.84648682 -139.875 206.3125 C-138.58913841 204.13974019 -137.30400648 201.96654843 -136.01953125 199.79296875 C-135.3538916 198.67067871 -134.68825195 197.54838867 -134.00244141 196.39208984 C-130.81524874 190.99305852 -127.68875325 185.5594716 -124.5625 180.125 C-123.30346844 177.94005632 -122.04435339 175.75516075 -120.78515625 173.5703125 C-120.16012207 172.48524414 -119.53508789 171.40017578 -118.89111328 170.28222656 C-115.76319852 164.85340059 -112.63142753 159.42680025 -109.5 154 C-105.70260037 147.41827123 -101.90551907 140.83635928 -98.109375 134.25390625 C-97.46871094 133.14354004 -96.82804688 132.03317383 -96.16796875 130.88916016 C-94.90336231 128.69573763 -93.64030519 126.50142102 -92.37890625 124.30615234 C-89.48472392 119.27450219 -86.56884189 114.26013217 -83.578125 109.28515625 C-83.05573242 108.40851318 -82.53333984 107.53187012 -81.99511719 106.62866211 C-81.02693105 105.0073772 -80.04899926 103.39185626 -79.05957031 101.78344727 C-78.63772461 101.07373779 -78.21587891 100.36402832 -77.78125 99.6328125 C-77.41064453 99.02324707 -77.04003906 98.41368164 -76.65820312 97.78564453 C-75.80649001 95.4750252 -76.1523195 94.27906822 -77 92 C-78.39082887 90.29079416 -78.39082887 90.29079416 -80.125 88.625 C-90.25924616 77.36472649 -94.7742652 62.04183831 -94.27734375 47.0546875 C-92.78061637 30.56960561 -86.2026277 14.68602088 -73.3984375 3.78515625 C-51.60425054 -12.69861614 -23.23981825 -15.30788666 0 0 Z " fill="#FFFFFF" transform="translate(756,136)"/>
<path d="M0 0 C6.94608879 6.70970357 12.31903635 15.30578089 16 24.1875 C16.3196875 24.95707031 16.639375 25.72664063 16.96875 26.51953125 C22.05911299 41.48425579 19.99638841 59.15090945 13.59765625 73.28515625 C6.02938768 87.62600744 -5.20373957 96.21735787 -20 102.1875 C-20.93457031 102.56777344 -21.86914062 102.94804687 -22.83203125 103.33984375 C-37.97280527 108.38676842 -55.76489433 105.52538146 -69.75 98.5625 C-77.69226542 93.89686426 -84.40768195 87.46659612 -90 80.1875 C-98.75161055 81.90533095 -107.16517137 84.64205877 -115.65625 87.32421875 C-117.30513263 87.8419476 -118.95413234 88.35930372 -120.60324097 88.87631226 C-124.09636591 89.97206112 -127.58882113 91.06990809 -131.08074951 92.16946411 C-139.2335442 94.73629947 -147.390209 97.29079062 -155.54667282 99.84593773 C-158.25552731 100.69459657 -160.96426583 101.54362487 -163.67300415 102.39265442 C-177.52208398 106.73212876 -191.38033455 111.04038557 -205.25610352 115.29385376 C-207.3288686 115.92929214 -209.40129969 116.56582107 -211.47338867 117.20346069 C-214.28083025 118.06702619 -217.08938636 118.92684322 -219.8984375 119.78515625 C-221.10969803 120.15826431 -221.10969803 120.15826431 -222.34542847 120.53890991 C-227.76949385 122.1875 -227.76949385 122.1875 -230 122.1875 C-232.31 114.9275 -234.62 107.6675 -237 100.1875 C-234.33661318 97.52411318 -231.90476574 97.05400097 -228.30200195 95.93530273 C-227.26212505 95.60959463 -227.26212505 95.60959463 -226.20124054 95.27730656 C-223.88207426 94.55257955 -221.56022784 93.83685829 -219.23828125 93.12109375 C-217.59559288 92.60978655 -215.95307397 92.09793465 -214.31071472 91.58557129 C-209.89434424 90.20953581 -205.47560453 88.84126015 -201.05636597 87.47446823 C-196.49714476 86.06298763 -191.94010824 84.644489 -187.3828125 83.22680664 C-177.42835554 80.13173022 -167.47064582 77.04721294 -157.51215363 73.96514893 C-153.61511758 72.75880316 -149.71845317 71.55125871 -145.82177734 70.34375 C-130.55172112 65.61244441 -115.27822542 60.89236438 -100 56.1875 C-100.01812744 54.98528809 -100.03625488 53.78307617 -100.05493164 52.54443359 C-100.0695999 50.93327206 -100.08381731 49.32210637 -100.09765625 47.7109375 C-100.11074829 46.92259521 -100.12384033 46.13425293 -100.1373291 45.32202148 C-100.24471705 28.57809334 -93.85802538 14.54122945 -82.375 2.4375 C-75.20121292 -4.35871934 -67.28517378 -8.55186284 -58 -11.8125 C-57.29746094 -12.06 -56.59492187 -12.3075 -55.87109375 -12.5625 C-36.95370709 -17.89342696 -15.19502502 -11.98873534 0 0 Z " fill="#FFFFFF" transform="translate(915,325.8125)"/>
<path d="M0 0 C3.43278022 0.56907052 6.15110425 1.41014047 9.20703125 3.06640625 C10.33334961 3.6706543 10.33334961 3.6706543 11.48242188 4.28710938 C12.25134766 4.70798828 13.02027344 5.12886719 13.8125 5.5625 C14.99489258 6.19961914 14.99489258 6.19961914 16.20117188 6.84960938 C18.1373378 7.89396554 20.07005367 8.9442077 22 10 C20.6491736 14.33093726 18.98051601 18.31286837 16.98046875 22.3828125 C16.68622009 22.98520752 16.39197144 23.58760254 16.08880615 24.20825195 C15.45569212 25.50416176 14.8210529 26.79932735 14.18502808 28.09381104 C12.46322523 31.59978447 10.7543121 35.11201241 9.046875 38.625 C8.6997496 39.33907013 8.35262421 40.05314026 7.99497986 40.78884888 C4.88930031 47.19488759 1.90295518 53.65295535 -1.0625 60.125 C-7.97463637 75.18766914 -15.31944757 90.03869376 -22.66235352 104.89501953 C-23.59131906 106.78157036 -24.52027459 108.66812614 -25.44921875 110.5546875 C-25.87884918 111.4191449 -26.30847961 112.28360229 -26.75112915 113.17425537 C-28.82170714 117.38547106 -30.65931405 121.48530523 -32 126 C-31.03900391 126.80050781 -31.03900391 126.80050781 -30.05859375 127.6171875 C-18.11919085 137.90179984 -9.3331038 151.20348049 -7.77905273 167.28662109 C-6.87709179 185.93480719 -10.5659124 201.16607605 -22.8125 215.8125 C-34.46443006 228.20387947 -50.57701179 234.80260481 -67.5 235.375 C-82.82911922 234.79316482 -98.83197781 229.19125632 -109.9765625 218.32421875 C-116.55969465 210.7625129 -122.03020259 202.64773964 -125 193 C-125.22300781 192.34515625 -125.44601562 191.6903125 -125.67578125 191.015625 C-129.98653433 175.88400196 -127.24691186 158.25962397 -119.8125 144.6875 C-110.54040521 130.0411337 -98.0553871 121.10126797 -81.4296875 116.25 C-72.76487401 114.34215116 -63.81863345 114.8253736 -55 115 C-48.17466817 100.96937897 -41.3906102 86.92773955 -34.875 72.75 C-28.52033785 58.94272347 -21.85110478 45.29312929 -15.15380859 31.64941406 C-10.00085602 21.14587571 -4.94483916 10.60318101 0 0 Z " fill="#FFFFFF" transform="translate(435,667)"/>
</svg>
